<svg xmlns="http://www.w3.org/2000/svg" viewBox="0 0 68 68" id="man">
  <ellipse cx="19.12" cy="22.98" fill="#e8c59e" rx="2.37" ry="3.99"></ellipse>
  <ellipse cx="48.45" cy="22.98" fill="#e8c59e" rx="2.37" ry="3.99"></ellipse>
  <path fill="#736357" d="M42.53 42.8a52.9 52.9 0 0 1 11.45 2c5.78 1.8 9.66 6.73 9.66 12.25V66H4.36v-8.91c0-5.52 3.88-10.45 9.66-12.25a52.9 52.9 0 0 1 11.45-2"></path>
  <path fill="#dbb997" d="m28.05 36.39 5.97 2.42 5.97-2.42 1.07 3.92-7.04 4.88-7.04-4.88 1.07-3.92z"></path>
  <path fill="#e8c59e" d="M48.9 20.46c0 6.75-3.28 14.31-8.12 18.27a11 11 0 0 1-7 2.76 11 11 0 0 1-6.93-2.71c-4.85-3.93-8.18-11.53-8.18-18.32q0-.77.06-1.5a20.79 20.79 0 0 1 18.09-6c5.22.69 8.4.39 10.34-.2a16.78 16.78 0 0 1 1.74 7.7Z"></path>
  <path fill="#e6e6e6" d="m26.98 40.31.38.26 6.66 4.62-5.47 5.45-3.39-7.72 1.82-2.61zM41.06 40.31l-.38.26-6.66 4.62 5.47 5.45 3.39-7.72-1.82-2.61z"></path>
  <path fill="#2f3233" d="M48 23.41h-1.32a8.49 8.49 0 0 0-.82-6.21s-2.27 3.08-4.86 2.86c-1.45-.12-3.54-1.38-5.14-2.49a11.3 11.3 0 0 0-8.41-2c-3.25.59-6.83 2.65-8.12 8.57H18S14.93 2.83 32.68 2.72c0 0 8.39 1.78 10.29 0s5.3-.11 6.54 3.4C51.77 13.9 48 23.41 48 23.41Z"></path>
</svg>
